<?xml version="1.0" encoding="UTF-8"?>
<!DOCTYPE svg PUBLIC "-//W3C//DTD SVG 1.1//EN" "http://www.w3.org/Graphics/SVG/1.1/DTD/svg11.dtd">
<!-- Creator: CorelDRAW -->
<svg xmlns="http://www.w3.org/2000/svg" xml:space="preserve" width="200px" height="0px" style="shape-rendering:geometricPrecision; text-rendering:geometricPrecision; image-rendering:optimizeQuality; fill-rule:evenodd; clip-rule:evenodd"
viewBox="0 0 200 66.0005"
 xmlns:xlink="http://www.w3.org/1999/xlink">
 <defs>
  <style type="text/css">
   <![CDATA[
    .fil0 {fill:#FBFDFE}
   ]]>
  </style>
 </defs>
 <g id="Layer_x0020_1">
  <metadata id="CorelCorpID_0Corel-Layer"/>
  <g id="_143137224">
   <path id="_129675096" class="fil0" d="M147.229 34.9125c0.734651,-3.15475 4.34059,-9.17842 8.03038,-9.17842 1.03347,0 1.05473,0.183072 1.91222,0.38268l0 1.52954c0,3.90003 -5.69768,7.2662 -9.9426,7.2662zm-0.76536 -27.1514l3.44176 0c6.39336,0 -21.7384,35.9908 -8.73314,39.0369l4.14452 -8.44377c2.80986,0.750006 3.22207,8.41306 9.9426,8.41306l1.14686 0c3.84688,0 8.23117,-4.22366 11.0906,-5.73666 0.0885834,3.98271 2.13191,5.73666 6.11816,5.73666 3.88231,0 6.29651,-2.47679 8.79574,-3.05908 -1.05237,4.51657 -7.73864,14.9139 -13.3844,14.9139l-1.91222 0c-3.31774,0 -6.50084,-2.44726 -6.50084,-5.73666 0,-3.47955 2.05513,-3.62601 2.2949,-6.50084 -3.63782,0.302365 -7.2662,4.02877 -7.2662,8.03038l0 0.38268c0,4.8272 4.69846,10.3253 9.55992,10.3253l4.20712 0c9.09456,0 16.0667,-10.8686 19.3265,-17.3848 1.57678,-3.15239 11.2654,-23.7096 11.2654,-25.8274l0 -1.14804 -2.29372 0c-9.45598,0 -8.04573,20.2679 -19.121,20.2679 -1.17402,0 -2.29372,-0.353152 -2.29372,-1.52954l0 -2.29372c0,-3.56459 5.3528,-8.46739 5.3528,-14.1497 0,-1.90868 -1.82127,-2.6764 -3.82326,-2.6764l-1.91222 0c-2.06931,0 -6.68982,2.26065 -6.87998,4.6146l3.8209 -0.408665 0 2.67758c0,5.07287 -7.93353,14.1485 -13.767,14.1485 -2.45317,0 -5.2276,-2.30081 -5.73666,-4.20594 4.54728,-0.101576 11.8548,-7.14454 11.8548,-11.8548l0 -0.38268c0,-2.58309 -2.24647,-4.58862 -4.9713,-4.58862l-1.14686 0c-2.12482,0 -4.61578,1.49883 -6.11934,2.29372 1.22363,-5.24886 6.35674,-10.7021 6.50202,-17.2088 -0.724021,-1.07954 -2.05041,-2.29372 -3.82444,-2.29372l-0.38268 0c-2.74963,0 -8.2477,2.53585 -8.79574,4.58862z"/>
   <path id="_143141184" class="fil0" d="M0.00118111 19.6159c0,4.47287 3.79964,9.9426 8.03038,9.9426l2.6764 0c2.12954,0 4.4587,-2.10474 5.35398,-3.44176 -4.62878,0 -8.79574,-1.05119 -8.79574,-5.35398l0 -2.6764c0,-7.42092 13.6855,-9.9426 22.1801,-9.9426l3.82444 0c4.15279,0 9.55992,0.624808 9.55992,4.58862 0,4.9465 -4.5461,7.64888 -9.9426,7.64888l-0.462996 -0.209057 -2.24411 4.99374 0.412208 0.186616c3.48074,0.810243 9.17842,0.877566 9.17842,4.9713l0 1.91222c0,4.93705 -7.24848,8.79456 -12.6202,8.79456 -1.39017,0 -6.50084,-0.0165356 -6.50084,-1.14686 0,-2.07049 10.669,-23.2088 11.8548,-28.2983l-1.91222 0c-7.52368,0 -9.72055,9.06503 -12.3698,14.3978 -0.936622,1.88269 -7.89809,18.2978 -7.89809,19.2545 0,0.963787 6.32958,1.52954 7.64888,1.52954l6.50084 0c10.4895,0 24.0923,-4.42917 24.0923,-14.1497l0 -1.14686c0,-4.39492 -3.35318,-7.70557 -7.2662,-8.03038 1.24017,-1.69253 10.3253,-4.75397 10.3253,-10.708l0 -2.2949c0,-7.73628 -12.1241,-8.03038 -20.2679,-8.03038 -14.0682,0 -31.3573,3.70515 -31.3573,17.2088z"/>
   <path id="_143141304" class="fil0" d="M78.7778 35.2952c0,-3.53034 5.92446,-9.9426 9.55992,-9.9426l2.6764 0c0.921267,0 2.2949,1.37363 2.2949,2.29372l0 1.52954c0,4.05239 -5.74611,11.4733 -10.708,11.4733l-1.14686 0c-1.78466,0 -2.6764,-0.891739 -2.6764,-2.67758l0 -2.6764zm-26.0045 -10.708l4.9713 -0.38268 0 1.91222c0,4.49295 -6.11816,9.58354 -6.11816,14.1497l0 1.91222c0,2.46852 1.43151,4.58862 3.82444,4.58862l1.91104 0c7.35714,0 9.75953,-4.5898 12.6202,-5.35398 0.320081,3.85279 3.10869,5.35398 7.2662,5.35398 4.28271,0 6.71934,-2.56065 9.17724,-4.20712 -1.16576,4.36539 -8.51463,16.4446 -13.767,16.4446l-3.82326 0c-2.71656,0 -5.73666,-3.09333 -5.73666,-5.73666 0,-4.11617 2.06695,-3.76184 2.2949,-6.50084 -3.79255,0.883472 -6.88352,3.952 -6.88352,8.41306l0 0.764179c0,6.17013 4.04767,9.94378 10.3253,9.94378l2.29372 0c9.28236,0 16.0442,-8.18038 19.499,-14.1544 2.56537,-4.43744 8.79928,-18.3982 8.79928,-24.8518l0 -0.38268c0,-4.33704 -4.47051,-6.50084 -8.79456,-6.50084l-0.76536 0c-5.79335,0 -13.0123,4.82602 -15.5269,8.18156 -1.50356,2.00671 -3.67562,4.95949 -3.96381,7.89101 -0.275199,2.7886 -4.20712,4.95949 -6.89533,4.95949l-1.52954 0c-0.895283,0 -1.52954,-0.634257 -1.52954,-1.52954 0,-4.59689 6.11816,-11.2347 6.11816,-14.9139l0 -1.91222c0,-1.78466 -0.891739,-2.6764 -2.6764,-2.6764l-1.14804 0c-3.35081,0 -9.28708,2.13309 -9.9426,4.58862z"/>
   <path id="_143139864" class="fil0" d="M107.076 14.2619l0 1.52954c0,10.6619 21.7974,9.62488 21.7974,14.9151l0 1.91104c0,5.03862 -9.47724,9.17842 -15.2966,9.17842l-1.91222 0c-2.12482,0 -4.58862,-2.29844 -4.58862,-4.20712 0,-4.32405 4.82012,-4.98193 5.73548,-8.41306l-1.14686 0c-4.36066,0 -10.708,6.13824 -10.708,11.0906 0,4.84964 5.8465,7.6477 10.708,7.6477l0.76536 0c10.1717,0 24.8565,-7.1788 24.8565,-16.4434l0 -1.14686c0,-11.4426 -21.4147,-8.12959 -21.4147,-15.6793l0 -1.14686c0,-3.96735 7.24258,-7.64888 11.4721,-7.64888l2.29372 0c2.46262,0 5.35398,1.29922 5.35398,3.82444l0 1.52954c0,2.46852 -4.67484,2.94451 -4.9713,6.50084 10.7068,0 18.8895,-17.5903 0.38268,-17.5903 -8.67054,0 -23.327,6.62604 -23.327,14.1485z"/>
   <path id="_143140176" class="fil0" d="M63.0985 13.8792c0,1.19174 1.20946,2.2949 2.6764,2.2949l1.14804 0c2.15907,0 4.58862,-2.81695 4.58862,-4.9713l0 -0.38268c0,-0.891739 -1.02048,-1.91222 -1.91222,-1.91222l-1.52954 0c-2.34451,0 -4.9713,2.62679 -4.9713,4.9713z"/>
  </g>
 </g>
</svg>
