<?xml version="1.0" encoding="UTF-8"?>
<!DOCTYPE svg PUBLIC "-//W3C//DTD SVG 1.1//EN" "http://www.w3.org/Graphics/SVG/1.1/DTD/svg11.dtd">
<!-- Creator: CorelDRAW -->
<svg xmlns="http://www.w3.org/2000/svg" xml:space="preserve" width="300px" height="0px" style="shape-rendering:geometricPrecision; text-rendering:geometricPrecision; image-rendering:optimizeQuality; fill-rule:evenodd; clip-rule:evenodd"
viewBox="0 0 300 83.9983"
 xmlns:xlink="http://www.w3.org/1999/xlink">
 <defs>
  <style type="text/css">
   <![CDATA[
    .fil0 {fill:#FDFDFE}
   ]]>
  </style>
 </defs>
 <g id="Layer_x0020_1">
  <metadata id="CorelCorpID_0Corel-Layer"/>
  <polygon class="fil0" points="9.48019,4.26618 8.61739,4.26618 8.61739,4.69669 7.75636,4.69669 7.75636,5.12721 7.32585,5.12721 7.32585,5.55949 6.46304,5.55949 6.46304,6.42052 6.03253,6.42052 6.03253,6.85281 5.60024,6.85281 5.60024,7.28333 5.16973,7.28333 5.16973,7.71384 4.73921,7.71384 4.73921,8.57664 4.30692,8.57664 4.30692,9.00716 3.87641,9.00716 3.87641,9.86996 3.44589,9.86996 3.44589,11.1633 3.01538,11.1633 3.01538,12.0243 2.58309,12.0243 2.58309,13.3176 2.15258,13.3176 2.15258,15.9043 1.72206,15.9043 1.72206,84.0072 1.28977,84.0072 1.28977,85.731 0.859259,85.731 0.859259,86.1615 0.428744,86.1615 0.428744,86.5938 -0.00177167,86.5938 -0.00177167,87.0243 17.6706,87.0243 17.6706,86.5938 18.5316,86.5938 18.5316,85.731 18.9639,85.731 18.9639,84.87 19.3944,84.87 19.3944,17.1976 19.825,17.1976 19.825,13.3176 20.2555,13.3176 20.2555,11.1633 20.6878,11.1633 20.6878,9.43767 21.1183,9.43767 21.1183,8.57664 21.5488,8.57664 21.5488,7.71384 21.9811,7.71384 21.9811,6.85281 22.4116,6.85281 22.4116,6.42052 22.8421,6.42052 22.8421,5.99001 23.2726,5.99001 23.2726,5.12721 23.7049,5.12721 23.7049,4.69669 24.1354,4.69669 24.1354,4.26618 24.5659,4.26618 24.5659,3.83566 9.48019,3.83566 "/>
  <polygon class="fil0" points="54.3087,3.83566 53.0154,3.83566 53.0154,4.26618 52.1526,4.26618 52.1526,4.69669 51.7221,4.69669 51.7221,5.12721 50.8593,5.12721 50.8593,5.55949 50.4287,5.55949 50.4287,5.99001 49.9982,5.99001 49.9982,6.42052 49.5659,6.42052 49.5659,6.85281 49.1354,6.85281 49.1354,7.28333 48.7049,7.28333 48.7049,7.71384 48.2744,7.71384 48.2744,8.57664 48.7049,8.57664 48.7049,9.43767 49.1354,9.43767 49.1354,10.3005 49.5659,10.3005 49.5659,11.1633 49.9982,11.1633 49.9982,12.4548 50.4287,12.4548 50.4287,15.0415 50.8593,15.0415 50.8593,71.0758 51.2915,71.0758 51.2915,71.5063 51.7221,71.5063 51.7221,71.9386 52.1526,71.9386 52.1526,72.3691 68.9639,72.3691 68.9639,71.9386 68.5316,71.9386 68.5316,70.6452 68.1011,70.6452 68.1011,14.6109 67.6706,14.6109 67.6706,12.4548 67.2401,12.4548 67.2401,11.5938 66.8078,11.5938 66.8078,10.731 66.3773,10.731 66.3773,9.86996 65.9468,9.86996 65.9468,9.00716 65.5145,9.00716 65.5145,8.57664 65.084,8.57664 65.084,7.71384 64.6535,7.71384 64.6535,7.28333 64.2229,7.28333 64.2229,6.85281 63.7907,6.85281 63.7907,6.42052 63.3601,6.42052 63.3601,5.99001 62.9296,5.99001 62.9296,5.55949 62.4973,5.55949 62.4973,5.12721 61.6363,5.12721 61.6363,4.69669 61.204,4.69669 61.204,4.26618 60.343,4.26618 60.343,3.83566 59.0497,3.83566 59.0497,3.40337 54.3087,3.40337 "/>
  <polygon class="fil0" points="265.086,3.83566 264.223,3.83566 264.223,4.26618 263.792,4.26618 263.792,4.69669 262.93,4.69669 262.93,5.12721 262.499,5.12721 262.499,5.55949 262.069,5.55949 262.069,5.99001 261.636,5.99001 261.636,6.42052 261.206,6.42052 261.206,6.85281 260.775,6.85281 260.775,7.71384 260.345,7.71384 260.345,8.14613 259.912,8.14613 259.912,9.00716 259.482,9.00716 259.482,9.86996 259.051,9.86996 259.051,11.1633 258.619,11.1633 258.619,12.4548 258.189,12.4548 258.189,20.6452 258.619,20.6452 258.619,21.9386 259.051,21.9386 259.051,22.7996 259.482,22.7996 259.482,24.0929 259.912,24.0929 259.912,24.5252 260.345,24.5252 260.345,25.3862 260.775,25.3862 260.775,26.249 261.206,26.249 261.206,26.6795 261.636,26.6795 261.636,27.1101 262.069,27.1101 262.069,27.5423 262.499,27.5423 262.499,27.9729 262.93,27.9729 262.93,28.4034 263.362,28.4034 263.362,28.8357 263.792,28.8357 263.792,29.2662 264.223,29.2662 264.223,29.6967 264.653,29.6967 264.653,30.1272 265.086,30.1272 265.086,30.5595 265.516,30.5595 265.516,30.99 265.947,30.99 265.947,31.4205 266.379,31.4205 266.379,31.8528 267.24,31.8528 267.24,32.2833 267.671,32.2833 267.671,32.7138 268.103,32.7138 268.103,33.1444 268.533,33.1444 268.533,33.5766 268.964,33.5766 268.964,34.0072 269.396,34.0072 269.396,34.4377 269.827,34.4377 269.827,34.87 270.69,34.87 270.69,35.3005 271.12,35.3005 271.12,35.731 271.551,35.731 271.551,36.1633 271.981,36.1633 271.981,36.5938 272.413,36.5938 272.413,37.0243 272.844,37.0243 272.844,37.4548 273.274,37.4548 273.274,37.8871 273.707,37.8871 273.707,38.3176 274.137,38.3176 274.137,38.7481 275,38.7481 275,39.1804 275.431,39.1804 275.431,39.6109 275.861,39.6109 275.861,40.0415 276.292,40.0415 276.292,40.472 276.724,40.472 276.724,40.9043 277.154,40.9043 277.154,41.3348 277.585,41.3348 277.585,41.7653 278.017,41.7653 278.017,42.1976 278.448,42.1976 278.448,42.6281 278.878,42.6281 278.878,43.0586 279.309,43.0586 279.309,43.4909 279.741,43.4909 279.741,43.9214 280.171,43.9214 280.171,44.3519 280.602,44.3519 280.602,44.7824 281.034,44.7824 281.034,45.2147 281.465,45.2147 281.465,45.6452 281.895,45.6452 281.895,46.508 282.328,46.508 282.328,52.1101 281.895,52.1101 281.895,53.4034 281.465,53.4034 281.465,53.8339 281.034,53.8339 281.034,54.6967 280.602,54.6967 280.602,55.1272 280.171,55.1272 280.171,55.5595 280.602,55.5595 280.602,56.4205 281.034,56.4205 281.034,57.2833 281.465,57.2833 281.465,57.7138 281.895,57.7138 281.895,58.1444 282.328,58.1444 282.328,59.0072 282.758,59.0072 282.758,59.4377 283.619,59.4377 283.619,59.87 284.051,59.87 284.051,60.3005 284.912,60.3005 284.912,60.731 285.775,60.731 285.775,61.1633 291.81,61.1633 291.81,60.731 293.533,60.731 293.533,60.3005 294.396,60.3005 294.396,59.87 294.827,59.87 294.827,59.4377 295.69,59.4377 295.69,59.0072 296.12,59.0072 296.12,58.5766 296.551,58.5766 296.551,58.1444 296.983,58.1444 296.983,57.7138 297.413,57.7138 297.413,57.2833 297.844,57.2833 297.844,56.4205 298.274,56.4205 298.274,55.5595 298.707,55.5595 298.707,54.6967 299.137,54.6967 299.137,53.4034 299.568,53.4034 299.568,51.249 300,51.249 300,43.9214 299.568,43.9214 299.568,43.0586 299.137,43.0586 299.137,41.7653 298.707,41.7653 298.707,40.9043 298.274,40.9043 298.274,40.0415 297.844,40.0415 297.844,39.6109 297.413,39.6109 297.413,39.1804 296.983,39.1804 296.983,38.7481 296.551,38.7481 296.551,37.8871 296.12,37.8871 296.12,37.4548 295.69,37.4548 295.69,37.0243 294.827,37.0243 294.827,36.5938 294.396,36.5938 294.396,36.1633 293.966,36.1633 293.966,35.731 293.533,35.731 293.533,35.3005 293.103,35.3005 293.103,34.87 292.672,34.87 292.672,34.4377 292.24,34.4377 292.24,34.0072 291.81,34.0072 291.81,33.5766 291.379,33.5766 291.379,33.1444 290.516,33.1444 290.516,32.7138 290.086,32.7138 290.086,32.2833 289.655,32.2833 289.655,31.8528 289.223,31.8528 289.223,31.4205 288.792,31.4205 288.792,30.99 288.362,30.99 288.362,30.5595 287.93,30.5595 287.93,30.1272 287.499,30.1272 287.499,29.6967 287.069,29.6967 287.069,29.2662 286.206,29.2662 286.206,28.8357 285.775,28.8357 285.775,28.4034 285.345,28.4034 285.345,27.9729 284.912,27.9729 284.912,27.5423 284.482,27.5423 284.482,27.1101 284.051,27.1101 284.051,26.6795 283.619,26.6795 283.619,26.249 283.189,26.249 283.189,25.8185 282.758,25.8185 282.758,25.3862 282.328,25.3862 282.328,24.9557 281.895,24.9557 281.895,24.5252 281.465,24.5252 281.465,24.0929 281.034,24.0929 281.034,23.6624 280.602,23.6624 280.602,23.2319 280.171,23.2319 280.171,22.7996 279.741,22.7996 279.741,22.3691 278.878,22.3691 278.878,21.9386 278.448,21.9386 278.448,21.508 278.017,21.508 278.017,21.0758 277.585,21.0758 277.585,20.6452 277.154,20.6452 277.154,20.2147 276.724,20.2147 276.724,19.3519 276.292,19.3519 276.292,18.9214 275.861,18.9214 275.861,18.0586 275.431,18.0586 275.431,16.7653 275,16.7653 275,12.4548 275.431,12.4548 275.431,10.3005 275.861,10.3005 275.861,8.57664 276.292,8.57664 276.292,7.71384 276.724,7.71384 276.724,7.28333 277.154,7.28333 277.154,6.42052 277.585,6.42052 277.585,5.99001 278.017,5.99001 278.017,5.55949 278.448,5.55949 278.448,5.12721 278.878,5.12721 278.878,4.26618 279.309,4.26618 279.309,3.83566 279.741,3.83566 279.741,3.40337 265.086,3.40337 "/>
  <polygon class="fil0" points="178.446,4.26618 179.309,4.26618 179.309,5.12721 179.739,5.12721 179.739,5.55949 180.171,5.55949 180.171,58.5766 180.602,58.5766 180.602,59.4377 181.033,59.4377 181.033,60.3005 181.465,60.3005 181.465,60.731 199.137,60.731 199.137,59.87 198.705,59.87 198.705,58.5766 198.274,58.5766 198.274,5.55949 197.844,5.55949 197.844,4.69669 197.412,4.69669 197.412,4.26618 196.981,4.26618 196.981,3.83566 178.446,3.83566 "/>
  <polygon class="fil0" points="129.309,4.26618 128.878,4.26618 128.878,4.69669 128.446,4.69669 128.446,5.55949 128.015,5.55949 128.015,59.4377 128.446,59.4377 128.446,60.3005 128.878,60.3005 128.878,60.731 146.551,60.731 146.551,59.87 146.118,59.87 146.118,5.12721 146.551,5.12721 146.551,4.26618 146.981,4.26618 146.981,3.83566 129.309,3.83566 "/>
  <polygon class="fil0" points="208.189,49.9557 208.619,49.9557 208.619,51.6795 209.05,51.6795 209.05,52.5423 209.482,52.5423 209.482,53.8339 209.912,53.8339 209.912,55.1272 210.343,55.1272 210.343,55.5595 210.775,55.5595 210.775,56.4205 211.206,56.4205 211.206,57.2833 211.636,57.2833 211.636,57.7138 212.067,57.7138 212.067,58.1444 212.499,58.1444 212.499,58.5766 212.93,58.5766 212.93,59.0072 213.36,59.0072 213.36,59.4377 214.223,59.4377 214.223,59.87 214.653,59.87 214.653,60.3005 215.516,60.3005 215.516,60.731 216.81,60.731 216.81,61.1633 231.465,61.1633 231.465,60.731 231.033,60.731 231.033,60.3005 230.602,60.3005 230.602,59.87 230.171,59.87 230.171,59.4377 229.741,59.4377 229.741,59.0072 229.309,59.0072 229.309,58.1444 228.878,58.1444 228.878,57.7138 228.448,57.7138 228.448,56.8528 228.015,56.8528 228.015,56.4205 227.585,56.4205 227.585,55.5595 227.154,55.5595 227.154,53.8339 226.724,53.8339 226.724,52.1101 226.292,52.1101 226.292,49.0929 225.861,49.0929 225.861,3.83566 208.189,3.83566 "/>
  <polygon class="fil0" points="84.4802,4.26618 83.1869,4.26618 83.1869,4.69669 82.7564,4.69669 82.7564,5.12721 82.3258,5.12721 82.3258,5.55949 81.8953,5.55949 81.8953,5.99001 81.463,5.99001 81.463,6.42052 81.0325,6.42052 81.0325,6.85281 80.602,6.85281 80.602,7.28333 80.1697,7.28333 80.1697,7.71384 79.7392,7.71384 79.7392,8.57664 79.3087,8.57664 79.3087,9.00716 78.8764,9.00716 78.8764,9.86996 78.4459,9.86996 78.4459,10.731 78.0154,10.731 78.0154,12.0243 77.5849,12.0243 77.5849,12.8871 77.1526,12.8871 77.1526,15.0415 76.7221,15.0415 76.7221,16.7653 76.2915,16.7653 76.2915,46.508 76.7221,46.508 76.7221,49.9557 77.1526,49.9557 77.1526,50.8167 77.5849,50.8167 77.5849,52.5423 78.0154,52.5423 78.0154,53.8339 78.4459,53.8339 78.4459,54.6967 78.8764,54.6967 78.8764,55.1272 79.3087,55.1272 79.3087,55.99 79.7392,55.99 79.7392,56.4205 80.1697,56.4205 80.1697,57.2833 80.602,57.2833 80.602,57.7138 81.0325,57.7138 81.0325,58.1444 81.463,58.1444 81.463,58.5766 81.8953,58.5766 81.8953,59.0072 82.7564,59.0072 82.7564,59.4377 83.1869,59.4377 83.1869,59.87 84.0497,59.87 84.0497,60.3005 84.4802,60.3005 84.4802,60.731 99.1354,60.731 99.1354,59.87 98.7049,59.87 98.7049,59.4377 98.2744,59.4377 98.2744,58.5766 97.8421,58.5766 97.8421,58.1444 97.4116,58.1444 97.4116,57.2833 96.9811,57.2833 96.9811,56.4205 96.5506,56.4205 96.5506,55.5595 96.1183,55.5595 96.1183,54.6967 95.6878,54.6967 95.6878,52.9729 95.2572,52.9729 95.2572,52.1101 94.825,52.1101 94.825,49.0929 94.3944,49.0929 94.3944,17.6281 94.825,17.6281 94.825,12.8871 95.2572,12.8871 95.2572,10.731 95.6878,10.731 95.6878,9.43767 96.1183,9.43767 96.1183,8.57664 96.5506,8.57664 96.5506,7.28333 96.9811,7.28333 96.9811,6.85281 97.4116,6.85281 97.4116,5.99001 97.8421,5.99001 97.8421,5.12721 98.2744,5.12721 98.2744,4.69669 98.7049,4.69669 98.7049,4.26618 99.1354,4.26618 99.1354,3.83566 84.4802,3.83566 "/>
  <polygon class="fil0" points="105.17,3.83566 104.309,3.83566 104.309,4.26618 103.446,4.26618 103.446,4.69669 102.585,4.69669 102.585,5.12721 102.153,5.12721 102.153,5.55949 101.722,5.55949 101.722,5.99001 101.292,5.99001 101.292,6.42052 100.861,6.42052 100.861,6.85281 100.429,6.85281 100.429,7.28333 99.9982,7.28333 99.9982,7.71384 99.5677,7.71384 99.5677,8.14613 99.9982,8.14613 99.9982,9.00716 100.429,9.00716 100.429,10.3005 100.861,10.3005 100.861,11.5938 101.292,11.5938 101.292,51.249 100.861,51.249 100.861,53.8339 100.429,53.8339 100.429,54.6967 99.9982,54.6967 99.9982,55.5595 99.5677,55.5595 99.5677,57.2833 99.9982,57.2833 99.9982,57.7138 100.429,57.7138 100.429,58.1444 100.861,58.1444 100.861,58.5766 101.292,58.5766 101.292,59.0072 101.722,59.0072 101.722,59.4377 102.153,59.4377 102.153,59.87 102.585,59.87 102.585,60.3005 103.446,60.3005 103.446,60.731 104.309,60.731 104.309,61.1633 106.033,61.1633 106.033,61.5938 110.774,61.5938 110.774,61.1633 112.067,61.1633 112.067,60.731 113.36,60.731 113.36,60.3005 113.791,60.3005 113.791,59.87 114.223,59.87 114.223,59.4377 115.084,59.4377 115.084,59.0072 115.516,59.0072 115.516,58.1444 115.947,58.1444 115.947,57.7138 116.377,57.7138 116.377,56.8528 116.808,56.8528 116.808,55.99 117.24,55.99 117.24,55.1272 117.671,55.1272 117.671,53.8339 118.101,53.8339 118.101,52.9729 118.533,52.9729 118.533,50.8167 118.964,50.8167 118.964,12.4548 118.533,12.4548 118.533,11.5938 118.101,11.5938 118.101,10.3005 117.671,10.3005 117.671,9.43767 117.24,9.43767 117.24,9.00716 116.808,9.00716 116.808,8.14613 116.377,8.14613 116.377,7.71384 115.947,7.71384 115.947,7.28333 115.516,7.28333 115.516,6.85281 115.084,6.85281 115.084,6.42052 114.653,6.42052 114.653,5.99001 114.223,5.99001 114.223,5.55949 113.791,5.55949 113.791,5.12721 112.93,5.12721 112.93,4.69669 112.067,4.69669 112.067,4.26618 111.206,4.26618 111.206,3.83566 109.05,3.83566 109.05,3.40337 105.17,3.40337 "/>
  <polygon class="fil0" points="30.602,3.83566 29.3087,3.83566 29.3087,4.26618 28.4459,4.26618 28.4459,4.69669 27.5831,4.69669 27.5831,5.12721 27.1526,5.12721 27.1526,5.55949 26.7221,5.55949 26.7221,5.99001 26.2915,5.99001 26.2915,6.42052 25.8593,6.42052 25.8593,6.85281 25.4287,6.85281 25.4287,7.28333 24.9982,7.28333 24.9982,7.71384 24.5659,7.71384 24.5659,9.00716 24.9982,9.00716 24.9982,9.43767 25.4287,9.43767 25.4287,10.3005 25.8593,10.3005 25.8593,11.5938 26.2915,11.5938 26.2915,13.7481 26.7221,13.7481 26.7221,16.3348 27.1526,16.3348 27.1526,59.4377 27.5831,59.4377 27.5831,60.3005 28.0154,60.3005 28.0154,60.731 28.4459,60.731 28.4459,61.1633 45.2572,61.1633 45.2572,60.3005 44.825,60.3005 44.825,59.4377 44.3944,59.4377 44.3944,15.0415 43.9639,15.0415 43.9639,12.8871 43.5316,12.8871 43.5316,11.5938 43.1011,11.5938 43.1011,10.731 42.6706,10.731 42.6706,9.86996 42.2383,9.86996 42.2383,9.43767 41.8078,9.43767 41.8078,8.57664 41.3773,8.57664 41.3773,8.14613 40.9468,8.14613 40.9468,7.28333 40.5145,7.28333 40.5145,6.85281 40.084,6.85281 40.084,6.42052 39.6535,6.42052 39.6535,5.99001 39.2212,5.99001 39.2212,5.55949 38.7907,5.55949 38.7907,5.12721 37.9279,5.12721 37.9279,4.69669 37.0668,4.69669 37.0668,4.26618 36.6363,4.26618 36.6363,3.83566 35.343,3.83566 35.343,3.40337 30.602,3.40337 "/>
  <polygon class="fil0" points="235.343,4.26618 234.482,4.26618 234.482,5.12721 234.05,5.12721 234.05,5.99001 233.619,5.99001 233.619,49.0929 233.189,49.0929 233.189,50.8167 232.758,50.8167 232.758,53.4034 232.326,53.4034 232.326,54.2662 231.895,54.2662 231.895,55.1272 231.465,55.1272 231.465,55.99 231.033,55.99 231.033,56.8528 231.465,56.8528 231.465,57.2833 231.895,57.2833 231.895,57.7138 232.326,57.7138 232.326,58.1444 232.758,58.1444 232.758,58.5766 233.189,58.5766 233.189,59.0072 233.619,59.0072 233.619,59.4377 234.05,59.4377 234.05,59.87 234.912,59.87 234.912,60.3005 235.775,60.3005 235.775,60.731 236.636,60.731 236.636,61.1633 237.93,61.1633 237.93,61.5938 240.947,61.5938 240.947,61.1633 242.671,61.1633 242.671,60.731 243.533,60.731 243.533,60.3005 244.396,60.3005 244.396,59.87 244.827,59.87 244.827,59.4377 245.688,59.4377 245.688,59.0072 246.12,59.0072 246.12,58.5766 246.551,58.5766 246.551,58.1444 246.981,58.1444 246.981,57.7138 247.413,57.7138 247.413,57.2833 247.844,57.2833 247.844,56.8528 248.274,56.8528 248.274,55.99 248.707,55.99 248.707,55.1272 249.137,55.1272 249.137,54.6967 249.568,54.6967 249.568,53.4034 249.998,53.4034 249.998,52.5423 250.431,52.5423 250.431,51.249 250.861,51.249 250.861,5.99001 251.292,5.99001 251.292,5.12721 251.724,5.12721 251.724,4.69669 252.154,4.69669 252.154,3.83566 235.343,3.83566 "/>
  <polygon class="fil0" points="150.861,4.26618 150.429,4.26618 150.429,4.69669 149.998,4.69669 149.998,5.12721 149.568,5.12721 149.568,5.55949 149.135,5.55949 149.135,5.99001 149.568,5.99001 149.568,6.85281 149.998,6.85281 149.998,7.71384 150.429,7.71384 150.429,8.14613 150.861,8.14613 150.861,9.43767 151.292,9.43767 151.292,10.3005 151.722,10.3005 151.722,11.5938 152.154,11.5938 152.154,12.4548 152.585,12.4548 152.585,14.6109 153.015,14.6109 153.015,23.6624 152.585,23.6624 152.585,24.9557 152.154,24.9557 152.154,26.249 151.722,26.249 151.722,27.1101 151.292,27.1101 151.292,27.9729 150.861,27.9729 150.861,28.8357 150.429,28.8357 150.429,29.2662 149.998,29.2662 149.998,30.1272 149.568,30.1272 149.568,30.5595 149.135,30.5595 149.135,30.99 164.653,30.99 164.653,30.5595 165.947,30.5595 165.947,30.1272 166.81,30.1272 166.81,29.6967 167.24,29.6967 167.24,29.2662 167.671,29.2662 167.671,28.8357 168.101,28.8357 168.101,28.4034 168.533,28.4034 168.533,27.9729 168.964,27.9729 168.964,27.1101 169.394,27.1101 169.394,26.6795 169.827,26.6795 169.827,25.8185 170.257,25.8185 170.257,24.5252 170.688,24.5252 170.688,23.2319 171.12,23.2319 171.12,12.8871 170.688,12.8871 170.688,11.5938 170.257,11.5938 170.257,10.3005 169.827,10.3005 169.827,9.43767 169.394,9.43767 169.394,8.57664 168.964,8.57664 168.964,7.71384 168.533,7.71384 168.533,7.28333 168.101,7.28333 168.101,6.85281 167.671,6.85281 167.671,6.42052 167.24,6.42052 167.24,5.99001 166.81,5.99001 166.81,5.55949 165.947,5.55949 165.947,5.12721 165.084,5.12721 165.084,4.69669 163.791,4.69669 163.791,4.26618 162.93,4.26618 162.93,3.83566 150.861,3.83566 "/>
  <polygon class="fil0" points="149.135,34.0072 149.568,34.0072 149.568,34.4377 149.998,34.4377 149.998,35.3005 150.429,35.3005 150.429,35.731 150.861,35.731 150.861,36.5938 151.292,36.5938 151.292,37.4548 151.722,37.4548 151.722,38.3176 152.154,38.3176 152.154,39.6109 152.585,39.6109 152.585,40.9043 153.015,40.9043 153.015,49.9557 152.585,49.9557 152.585,52.1101 152.154,52.1101 152.154,52.9729 151.722,52.9729 151.722,54.2662 151.292,54.2662 151.292,55.5595 150.861,55.5595 150.861,56.4205 150.429,56.4205 150.429,56.8528 149.998,56.8528 149.998,57.7138 149.568,57.7138 149.568,58.5766 149.135,58.5766 149.135,59.0072 149.568,59.0072 149.568,59.4377 149.998,59.4377 149.998,59.87 150.429,59.87 150.429,60.3005 150.861,60.3005 150.861,60.731 162.499,60.731 162.499,60.3005 164.223,60.3005 164.223,59.87 165.084,59.87 165.084,59.4377 165.947,59.4377 165.947,59.0072 166.81,59.0072 166.81,58.5766 167.24,58.5766 167.24,58.1444 167.671,58.1444 167.671,57.7138 168.101,57.7138 168.101,57.2833 168.533,57.2833 168.533,56.8528 168.964,56.8528 168.964,55.99 169.394,55.99 169.394,55.1272 169.827,55.1272 169.827,54.2662 170.257,54.2662 170.257,52.9729 170.688,52.9729 170.688,51.249 171.12,51.249 171.12,41.3348 170.688,41.3348 170.688,40.0415 170.257,40.0415 170.257,38.7481 169.827,38.7481 169.827,37.8871 169.394,37.8871 169.394,37.4548 168.964,37.4548 168.964,36.5938 168.533,36.5938 168.533,36.1633 168.101,36.1633 168.101,35.731 167.671,35.731 167.671,35.3005 167.24,35.3005 167.24,34.87 166.81,34.87 166.81,34.4377 165.947,34.4377 165.947,34.0072 165.084,34.0072 165.084,33.5766 149.135,33.5766 "/>
  <polygon class="fil0" points="275.431,49.5252 259.482,49.5252 259.482,48.6624 258.619,48.6624 258.619,49.0929 258.189,49.0929 258.189,52.1101 258.619,52.1101 258.619,53.8339 259.051,53.8339 259.051,54.6967 259.482,54.6967 259.482,55.1272 259.912,55.1272 259.912,55.99 260.345,55.99 260.345,56.4205 260.775,56.4205 260.775,56.8528 261.206,56.8528 261.206,57.2833 261.636,57.2833 261.636,57.7138 262.069,57.7138 262.069,58.1444 262.93,58.1444 262.93,58.5766 263.362,58.5766 263.362,59.0072 264.223,59.0072 264.223,59.4377 264.653,59.4377 264.653,59.87 265.516,59.87 265.516,60.3005 266.81,60.3005 266.81,60.731 267.671,60.731 267.671,61.1633 281.034,61.1633 281.034,60.731 280.602,60.731 280.602,60.3005 280.171,60.3005 280.171,59.87 279.741,59.87 279.741,59.0072 279.309,59.0072 279.309,58.5766 278.878,58.5766 278.878,57.7138 278.448,57.7138 278.448,56.8528 278.017,56.8528 278.017,55.5595 277.585,55.5595 277.585,54.2662 277.154,54.2662 277.154,53.4034 276.724,53.4034 276.724,48.6624 276.292,48.6624 276.292,48.2319 275.431,48.2319 "/>
  <polygon class="fil0" points="284.912,3.40337 283.619,3.40337 283.619,3.83566 283.189,3.83566 283.189,4.26618 282.328,4.26618 282.328,4.69669 281.895,4.69669 281.895,5.12721 281.465,5.12721 281.465,5.55949 281.034,5.55949 281.034,5.99001 280.602,5.99001 280.602,6.42052 280.171,6.42052 280.171,6.85281 279.741,6.85281 279.741,7.71384 279.309,7.71384 279.309,8.14613 279.741,8.14613 279.741,9.00716 280.171,9.00716 280.171,10.3005 280.602,10.3005 280.602,12.4548 281.034,12.4548 281.034,14.6109 280.602,14.6109 280.602,16.3348 281.465,16.3348 281.465,15.4737 281.895,15.4737 281.895,14.1804 299.137,14.1804 299.137,15.0415 298.707,15.0415 298.707,16.3348 299.568,16.3348 299.568,15.4737 300,15.4737 300,11.5938 299.568,11.5938 299.568,10.3005 299.137,10.3005 299.137,9.00716 298.707,9.00716 298.707,8.14613 298.274,8.14613 298.274,7.71384 297.844,7.71384 297.844,6.85281 297.413,6.85281 297.413,6.42052 296.983,6.42052 296.983,5.55949 296.551,5.55949 296.551,5.12721 296.12,5.12721 296.12,4.69669 295.69,4.69669 295.69,4.26618 294.827,4.26618 294.827,3.83566 294.396,3.83566 294.396,3.40337 293.103,3.40337 293.103,2.97286 284.912,2.97286 "/>
  <polygon class="fil0" points="40.9468,3.83566 41.3773,3.83566 41.3773,4.26618 41.8078,4.26618 41.8078,4.69669 42.2383,4.69669 42.2383,5.55949 42.6706,5.55949 42.6706,5.99001 43.1011,5.99001 43.1011,6.85281 43.5316,6.85281 43.5316,7.28333 43.9639,7.28333 43.9639,8.14613 44.3944,8.14613 44.3944,9.00716 45.2572,9.00716 45.2572,8.14613 45.6878,8.14613 45.6878,7.28333 46.1183,7.28333 46.1183,6.42052 46.5488,6.42052 46.5488,5.99001 46.9811,5.99001 46.9811,5.12721 47.4116,5.12721 47.4116,4.69669 47.8421,4.69669 47.8421,4.26618 48.2744,4.26618 48.2744,3.83566 48.7049,3.83566 48.7049,3.40337 40.9468,3.40337 "/>
  <polygon class="fil0" points="297.413,18.9214 296.983,18.9214 296.983,20.2147 297.844,20.2147 297.844,19.7824 298.274,19.7824 298.274,18.9214 298.707,18.9214 298.707,18.0586 297.413,18.0586 "/>
  <polygon class="fil0" points="265.947,34.4377 265.516,34.4377 265.516,34.87 265.086,34.87 265.086,35.731 266.379,35.731 266.379,35.3005 266.81,35.3005 266.81,34.87 267.24,34.87 267.24,34.4377 266.81,34.4377 266.81,34.0072 265.947,34.0072 "/>
  <polygon class="fil0" points="293.103,25.8185 292.672,25.8185 292.672,26.249 292.24,26.249 292.24,27.1101 292.672,27.1101 292.672,27.5423 293.103,27.5423 293.103,27.1101 293.533,27.1101 293.533,26.6795 293.966,26.6795 293.966,25.3862 293.103,25.3862 "/>
  <polygon class="fil0" points="295.69,22.3691 295.257,22.3691 295.257,22.7996 294.827,22.7996 294.827,23.6624 295.257,23.6624 295.257,24.0929 295.69,24.0929 295.69,23.6624 296.12,23.6624 296.12,22.7996 296.551,22.7996 296.551,21.9386 295.69,21.9386 "/>
  <polygon class="fil0" points="259.482,45.6452 259.051,45.6452 259.051,46.9386 259.912,46.9386 259.912,46.508 260.345,46.508 260.345,44.7824 259.482,44.7824 "/>
  <polygon class="fil0" points="277.154,44.7824 276.724,44.7824 276.724,46.508 277.585,46.508 277.585,45.6452 278.017,45.6452 278.017,44.3519 277.154,44.3519 "/>
  <polygon class="fil0" points="279.741,18.4909 279.309,18.4909 279.309,19.3519 278.878,19.3519 278.878,20.2147 279.741,20.2147 279.741,19.7824 280.171,19.7824 280.171,18.9214 280.602,18.9214 280.602,18.0586 279.741,18.0586 "/>
  <polygon class="fil0" points="261.206,41.7653 260.775,41.7653 260.775,43.0586 261.636,43.0586 261.636,42.1976 262.069,42.1976 262.069,40.9043 261.206,40.9043 "/>
  <polygon class="fil0" points="263.362,37.8871 262.93,37.8871 262.93,39.1804 263.792,39.1804 263.792,38.7481 264.223,38.7481 264.223,37.8871 264.653,37.8871 264.653,37.4548 263.362,37.4548 "/>
  <polygon class="fil0" points="290.516,28.8357 290.086,28.8357 290.086,29.2662 289.655,29.2662 289.655,30.5595 290.086,30.5595 290.086,30.1272 290.516,30.1272 290.516,29.6967 290.947,29.6967 290.947,29.2662 291.379,29.2662 291.379,28.8357 290.947,28.8357 290.947,28.4034 290.516,28.4034 "/>
 </g>
</svg>
