<?xml version="1.0" encoding="UTF-8"?>
<!DOCTYPE svg PUBLIC "-//W3C//DTD SVG 1.1//EN" "http://www.w3.org/Graphics/SVG/1.1/DTD/svg11.dtd">
<!-- Creator: CorelDRAW -->
<svg xmlns="http://www.w3.org/2000/svg" xml:space="preserve" width="300px" height="0px" style="shape-rendering:geometricPrecision; text-rendering:geometricPrecision; image-rendering:optimizeQuality; fill-rule:evenodd; clip-rule:evenodd"
viewBox="0 0 300 54.0004"
 xmlns:xlink="http://www.w3.org/1999/xlink">
 <defs>
  <style type="text/css">
   <![CDATA[
    .fil1 {fill:#6D6A6E}
    .fil0 {fill:#FDFDFD}
   ]]>
  </style>
 </defs>
 <g id="Layer_x0020_1">
  <metadata id="CorelCorpID_0Corel-Layer"/>
  <path class="fil0" d="M60.2013 53.3573l10.8532 0.0283467c2.27128,0 15.3692,-26.9807 18.2818,-30.3327l0 30.3327 9.55637 0c2.04805,0 15.782,-28.2227 18.6982,-31.58l0 31.58 10.3891 0 0 -52.7709 -10.2544 0.0761817 -18.0001 31.0874 0 -31.1636 -10.2101 0.0992134 -29.314 52.6433z"/>
  <path class="fil1" d="M205.265 51.7238l8.23648 -0.04252 20.4344 -35.2774 0 35.32 7.72979 -0.09567 28.4193 -49.3516 -7.06364 0c-2.56006,0 -18.6503,33.2648 -22.0218,35.7345l0 -35.7345 -6.64907 0c-1.92935,0 -12.9367,21.2228 -14.7917,24.2665 -4.79413,7.85735 -10.0648,17.1887 -14.2938,25.1807z"/>
  <polygon class="fil0" points="142.938,10.1711 158.313,10.1711 158.313,0.614769 133.382,0.614769 133.382,53.3857 158.313,53.3857 158.313,43.8293 143.353,43.8293 143.353,31.3638 158.313,31.3638 158.313,21.8057 142.938,21.8057 "/>
  <polygon class="fil0" points="0.00177167,11.4184 21.1927,11.4184 21.1927,53.3857 31.9963,53.3857 31.9963,11.4184 40.7218,11.4184 40.7218,0.614769 0.00177167,0.614769 "/>
  <polygon class="fil0" points="46.5382,53.3857 58.589,53.3857 58.589,0.614769 46.5382,0.614769 "/>
  <polygon class="fil1" points="276.318,51.7238 298.34,51.7238 298.34,45.0748 282.967,45.0748 282.967,29.7002 298.34,29.7002 298.34,23.4675 282.967,23.4675 282.967,8.50932 298.34,8.50932 298.34,2.27659 276.318,2.27659 "/>
  <path class="fil1" d="M205.265 51.7238c4.22897,-7.99199 9.49968,-17.3234 14.2938,-25.1807 1.85494,-3.04372 12.8623,-24.2665 14.7917,-24.2665l6.64907 0 0 35.7345c3.37148,-2.4697 19.4618,-35.7345 22.0218,-35.7345l7.06364 0 -28.4193 49.3516 -7.72979 0.09567 0 -35.32 -20.4344 35.2774 -8.23648 0.04252zm67.7822 -51.0772l-11.6877 -0.03189 -18.4785 31.7075 -0.219687 -31.7075 -9.1418 0c-1.9825,0 -13.9802,23.0388 -15.7962,26.1711 -2.17206,3.74885 -14.3789,24.139 -14.9511,26.5998l10.8036 0c2.20218,0 15.7554,-27.7797 18.6982,-31.1636l0 31.1636 10.2083 -0.104528 30.5648 -52.6345z"/>
  <polygon class="fil1" points="164.129,51.7238 184.074,51.7238 184.074,45.0748 171.609,45.0748 171.609,2.27659 164.129,2.27659 "/>
  <polygon class="fil1" points="191.138,51.7238 199.033,51.7238 199.033,2.27659 191.138,2.27659 "/>
  <path class="fil1" d="M276.318 2.27659l22.0218 0 0 6.23273 -15.3728 0 0 14.9582 15.3728 0 0 6.23273 -15.3728 0 0 15.3745 15.3728 0 0 6.64907 -22.0218 0 0 -49.4472zm8.31089 7.89455l15.3728 0 0 -9.55637 -25.3455 0 0 52.7709 25.3455 0 0 -9.55637 -15.3728 0 0 -12.4655 15.3728 0 0 -9.55815 -15.3728 0 0 -11.6345z"/>
  <path class="fil1" d="M164.129 2.27659l7.47998 0 0 42.7982 12.4655 0 0 6.64907 -19.9454 0 0 -49.4472zm-1.24548 51.1091l22.8527 0 0 -9.55637 -12.8818 0 0 -43.2145 -9.97094 0 0 52.7709z"/>
  <path class="fil1" d="M199.033 51.7238l-7.89455 0 -0.421657 -49.8618 8.73078 0 -0.41457 49.8618zm-9.55637 1.66182l11.2182 0 0 -52.7709 -11.2182 0 0 52.7709z"/>
  <polygon class="fil1" points="191.138,51.7238 191.138,2.27659 199.033,2.27659 199.033,51.7238 199.447,1.86202 190.716,1.86202 "/>
 </g>
</svg>
